<svg width="683" height="684" viewBox="0 0 683 684" fill="none" xmlns="http://www.w3.org/2000/svg">
<g clip-path="url(#clip0_636_10773)">
<path d="M682.881 0.642822H0.214844V683.31H682.881V0.642822Z" fill="#DC0000"/>
<path d="M302.777 360.893H277.678V323.059H287.704V352.028H302.777" fill="white"/>
<path d="M324.501 331.435C319.267 331.435 315.777 335.862 315.777 341.976C315.777 348.086 319.267 352.513 324.47 352.513C329.637 352.513 333.173 348.075 333.173 341.976C333.173 335.82 329.647 331.435 324.501 331.435ZM343.402 341.976C343.402 352.851 335.949 361.648 324.47 361.648C313.069 361.648 305.543 352.851 305.543 341.976C305.543 331.023 313.069 322.304 324.47 322.304C335.949 322.304 343.402 331.096 343.402 341.976Z" fill="white"/>
<path d="M365.912 345.747L362.824 335.747L359.735 345.747H365.912ZM370.589 360.893L368.652 354.611H356.995L355.058 360.893H344.131L357.813 323.059H367.834L381.516 360.893" fill="white"/>
<path d="M400.523 352.023C405.689 352.023 408.976 348.085 408.976 341.976C408.976 335.867 405.689 331.929 400.523 331.929H395.809V352.023H400.523ZM401.747 323.059C412.184 323.059 419.059 331.096 419.059 341.976C419.059 352.851 412.184 360.893 401.747 360.893H385.783V323.059" fill="white"/>
<path d="M451.445 327.028L446.023 334.112C444.268 332.627 441.611 331.44 438.502 331.44C436.398 331.44 434.695 331.976 434.393 333.982C434.195 335.383 434.945 335.872 439.955 337.33C445.122 338.841 452.137 340.841 452.137 349.435C452.137 358.622 444.07 361.648 437.851 361.648C432.387 361.648 426.273 359.325 423.314 355.06L429.054 348.539C430.835 350.893 434.294 352.513 437.867 352.513C441.309 352.513 441.861 351.002 441.913 349.815C442.012 348.138 441.111 347.653 436.497 346.247C428.778 343.867 424.169 342.409 424.169 334.841C424.169 325.872 430.632 322.304 438.554 322.304C444.117 322.304 448.476 324.091 451.445 327.028Z" fill="white"/>
<path d="M474.428 331.924V360.893H464.408V331.924H454.887V323.059H483.954V331.924" fill="white"/>
<path d="M515.418 360.893H488.215V323.059H514.918V331.924H498.241V336.648H512.965V345.512H498.241V352.028H515.418" fill="white"/>
<path d="M538.797 338.231C540.047 338.231 541.422 337.117 541.422 335.065C541.432 333.054 540.057 331.924 538.797 331.924H530.714V338.231H538.797ZM530.714 347.065V360.893H520.688V323.059H540.021C545.849 323.059 550.74 327.83 550.698 335.059C550.698 340.445 548.026 344.429 544.286 346.137L552.312 360.893H541.339L535.214 347.059" fill="white"/>
<path d="M215.49 314.466L243.459 286.497V342.44L215.49 370.408V314.466Z" fill="white"/>
<path d="M159.553 314.466L187.521 286.497H243.459L215.49 314.466H159.553Z" fill="white"/>
<path d="M132.506 397.455L160.475 369.487H216.412L188.443 397.455H132.506Z" fill="white"/>
<path d="M132.506 341.512L160.475 313.544V369.486L132.506 397.455V341.512Z" fill="white"/>
<path d="M160.475 369.487H215.49V314.471H160.475V369.487Z" fill="#DC0000"/>
</g>
<defs>
<clipPath id="clip0_636_10773">
<rect width="682.667" height="682.667" fill="white" transform="translate(0.214844 0.642822)"/>
</clipPath>
</defs>
</svg>
